HIERARCHY
ROOT hip
{
	OFFSET 0.000000 0.000000 0.000000
	CHANNELS 6 Xposition Yposition Zposition Xrotation Zrotation Yrotation 
	JOINT abdomen
	{
		OFFSET 0.000000 3.422050 0.000000
		CHANNELS 3 Xrotation Zrotation Yrotation 
		JOINT chest
		{
			OFFSET 0.000000 8.486693 -0.684411
			CHANNELS 3 Xrotation Zrotation Yrotation 
			JOINT neck
			{
				OFFSET 0.000000 10.266162 -0.273764
				CHANNELS 3 Xrotation Zrotation Yrotation 
				JOINT head
				{
					OFFSET 0.000000 3.148285 0.000000
					CHANNELS 3 Xrotation Zrotation Yrotation 
					End Site
					{
						OFFSET 0.000000 3.148289 0.000000
					}
				}
			}
			JOINT lCollar
			{
				OFFSET 3.422053 6.707223 -0.821293
				CHANNELS 3 Yrotation Zrotation Xrotation 
				JOINT lShldr
				{
					OFFSET 3.285171 0.000000 0.000000
					CHANNELS 3 Zrotation Yrotation Xrotation 
					JOINT lForeArm
					{
						OFFSET 10.129278 0.000000 0.000000
						CHANNELS 3 Yrotation Zrotation Xrotation 
						JOINT lHand
						{
							OFFSET 8.486692 0.000000 0.000000
							CHANNELS 3 Zrotation Yrotation Xrotation 
							End Site
							{
								OFFSET 4.106464 0.000000 0.000000
							}
						}
					}
				}
			}
			JOINT rCollar
			{
				OFFSET -3.558935 6.707223 -0.821293
				CHANNELS 3 Yrotation Zrotation Xrotation 
				JOINT rShldr
				{
					OFFSET -3.148289 0.000000 0.000000
					CHANNELS 3 Zrotation Yrotation Xrotation 
					JOINT rForeArm
					{
						OFFSET -10.266159 0.000000 0.000000
						CHANNELS 3 Yrotation Zrotation Xrotation 
						JOINT rHand
						{
							OFFSET -8.349810 0.000000 0.000000
							CHANNELS 3 Zrotation Yrotation Xrotation 
							End Site
							{
								OFFSET -4.106464 0.000000 0.000000
							}
						}
					}
				}
			}
		}
	}
	JOINT lThigh
	{
		OFFSET 5.338403 -1.642589 1.368821
		CHANNELS 3 Xrotation Zrotation Yrotation 
		JOINT lShin
		{
			OFFSET -2.053232 -20.121670 0.000000
			CHANNELS 3 Xrotation Zrotation Yrotation 
			JOINT lFoot
			{
				OFFSET 0.000000 -19.300380 -1.231939
				CHANNELS 3 Xrotation Yrotation Zrotation 
				End Site
				{
					OFFSET 0.000000 -2.463878 4.653993
				}
			}
		}
	}
	JOINT rThigh
	{
		OFFSET -5.338403 -1.642589 1.368821
		CHANNELS 3 Xrotation Zrotation Yrotation 
		JOINT rShin
		{
			OFFSET 2.053232 -20.121670 0.000000
			CHANNELS 3 Xrotation Zrotation Yrotation 
			JOINT rFoot
			{
				OFFSET 0.000000 -19.300380 -1.231939
				CHANNELS 3 Xrotation Yrotation Zrotation 
				End Site
				{
					OFFSET 0.000000 -2.463878 4.653993
				}
			}
		}
	}
}
MOTION
Frames: 14
Frame Time: 0.049989
16.998161 7.997272 -34.005333 89.977356 78.976761 -90.003098 13.483234 -0.881558 -0.939590 -10.692688 5.566814 -0.674982 51.408669 -0.011031 -0.005310 -0.395905 -0.043665 11.898218 -59.657776 -26.198011 -13.860336 -26.188229 -10.527016 -21.395645 -20.371563 14.559027 -10.732450 23.927450 -24.084562 -18.411299 17.538242 6.547804 17.443588 52.667805 20.388109 31.110027 88.326134 -29.698189 -41.820541 40.968040 4.588863 -10.826567 26.629309 5.293664 0.136654 60.437817 -2.859123 0.263376 11.667410 0.809980 3.125473 -24.057819 -2.323071 6.074553 58.312298 34.831280 -2.209074 29.327374 -15.347295 -3.368434 
16.998161 7.997272 -34.005333 89.977356 78.976761 -90.003098 13.183282 -0.881526 -0.939505 -9.747581 5.566910 -0.674935 50.859230 -0.011058 -0.005258 -0.145902 -0.047515 11.798240 -59.232899 -25.440298 -13.904993 -26.664181 -10.832397 -21.294407 -20.590183 14.529428 -10.678440 23.927450 -24.084562 -18.411299 17.681973 6.311939 16.992470 52.667805 20.388109 31.110027 88.326134 -29.698189 -41.820541 40.968040 4.588863 -10.826567 26.629309 5.293664 0.136654 60.437817 -2.859123 0.263376 11.667410 0.809980 3.125473 -24.057819 -2.323071 6.074553 58.312298 34.831280 -2.209074 29.327374 -15.347295 -3.368434 
16.998161 7.997272 -34.005333 89.977356 78.976761 -90.003098 12.883297 -0.881494 -0.939420 -8.801511 5.567006 -0.674887 50.309589 -0.011085 -0.005206 0.104130 -0.050929 11.698233 -58.809616 -24.682234 -13.955606 -27.141354 -11.137055 -21.190456 -20.808756 14.499624 -10.624553 23.927450 -24.084562 -18.411299 17.823814 6.074885 16.542011 52.667805 20.388109 31.110027 88.326134 -29.698189 -41.820541 40.968040 4.588863 -10.826567 26.629309 5.293664 0.136654 60.437817 -2.859123 0.263376 11.667410 0.809980 3.125473 -24.057819 -2.323071 6.074553 58.312298 34.831280 -2.209074 29.327374 -15.347295 -3.368434 
16.998161 7.997272 -34.005333 89.977356 78.976761 -90.003098 12.583283 -0.881462 -0.939335 -7.854595 5.567100 -0.674836 49.759773 -0.011112 -0.005153 0.354187 -0.053906 11.598206 -58.387798 -23.923941 -14.012086 -27.619736 -11.440941 -21.083769 -21.027285 14.469625 -10.570786 23.927450 -24.084562 -18.411299 17.963757 5.836670 16.092228 52.667805 20.388109 31.110027 88.326134 -29.698189 -41.820541 40.968040 4.588863 -10.826567 26.629309 5.293664 0.136654 60.437817 -2.859123 0.263376 11.667410 0.809980 3.125473 -24.057819 -2.323071 6.074553 58.312298 34.831280 -2.209074 29.327374 -15.347295 -3.368434 
16.998161 7.997272 -34.005333 89.977356 78.976761 -90.003098 12.283247 -0.881429 -0.939251 -6.906964 5.567194 -0.674785 49.209805 -0.011138 -0.005101 0.604264 -0.056447 11.498161 -57.967316 -23.165552 -14.074354 -28.099348 -11.744023 -20.974356 -21.245762 14.439423 -10.517147 23.927450 -24.084562 -18.411299 18.101780 5.597315 15.643112 52.667805 20.388109 31.110027 88.326134 -29.698189 -41.820541 40.968040 4.588863 -10.826567 26.629309 5.293664 0.136654 60.437817 -2.859123 0.263376 11.667410 0.809980 3.125473 -24.057819 -2.323071 6.074553 58.312298 34.831280 -2.209074 29.327374 -15.347295 -3.368434 
16.998161 7.997272 -34.005333 89.977356 78.976761 -90.003098 11.983185 -0.881395 -0.939166 -5.958752 5.567287 -0.674731 48.659698 -0.011163 -0.005048 0.854360 -0.058551 11.398099 -57.548065 -22.407202 -14.142336 -28.580183 -12.046259 -20.862196 -21.464188 14.409023 -10.463630 23.927450 -24.084562 -18.411299 18.237886 5.356849 15.194678 52.667805 20.388109 31.110027 88.326134 -29.698189 -41.820541 40.968040 4.588863 -10.826567 26.629309 5.293664 0.136654 60.437817 -2.859123 0.263376 11.667410 0.809980 3.125473 -24.057819 -2.323071 6.074553 58.312298 34.831280 -2.209074 29.327374 -15.347295 -3.368434 
16.998161 7.997272 -34.005333 89.977356 78.976761 -90.003098 11.683108 -0.881361 -0.939082 -5.010081 5.567379 -0.674676 48.109509 -0.011188 -0.004994 1.104470 -0.060219 11.298027 -57.129894 -21.649010 -14.215953 -29.062250 -12.347613 -20.747305 -21.682558 14.378425 -10.410235 23.927450 -24.084562 -18.411299 18.372068 5.115295 14.746925 52.667805 20.388109 31.110027 88.326134 -29.698189 -41.820541 40.968040 4.588863 -10.826567 26.629309 5.293664 0.136654 60.437817 -2.859123 0.263376 11.667410 0.809980 3.125473 -24.057819 -2.323071 6.074553 58.312298 34.831280 -2.209074 29.327374 -15.347295 -3.368434 
16.998161 7.997272 -34.005333 89.977356 78.976761 -90.003098 11.383021 -0.881327 -0.938998 -4.061085 5.567470 -0.674620 47.559231 -0.011213 -0.004941 1.354591 -0.061450 11.197946 -56.712723 -20.891119 -14.295139 -29.545565 -12.648050 -20.629673 -21.900875 14.347629 -10.356974 23.927450 -24.084562 -18.411299 18.504313 4.872682 14.299864 52.667805 20.388109 31.110027 88.326134 -29.698189 -41.820541 40.968040 4.588863 -10.826567 26.629309 5.293664 0.136654 60.437817 -2.859123 0.263376 11.667410 0.809980 3.125473 -24.057819 -2.323071 6.074553 58.312298 34.831280 -2.209074 29.327374 -15.347295 -3.368434 
16.998161 7.997272 -34.005333 89.977356 78.976761 -90.003098 11.082924 -0.881292 -0.938914 -3.111894 5.567559 -0.674562 47.008911 -0.011237 -0.004887 1.604720 -0.062244 11.097857 -56.296398 -20.133640 -14.379821 -30.030111 -12.947525 -20.509291 -22.119133 14.316634 -10.303835 23.927450 -24.084562 -18.411299 18.634609 4.629033 13.853493 52.667805 20.388109 31.110027 88.326134 -29.698189 -41.820541 40.968040 4.588863 -10.826567 26.629309 5.293664 0.136654 60.437817 -2.859123 0.263376 11.667410 0.809980 3.125473 -24.057819 -2.323071 6.074553 58.312298 34.831280 -2.209074 29.327374 -15.347295 -3.368434 
16.998161 7.997272 -34.005333 89.977356 78.976761 -90.003098 10.782824 -0.881257 -0.938831 -2.162639 5.567649 -0.674502 46.458557 -0.011260 -0.004833 1.854852 -0.062601 10.997764 -55.880840 -19.376717 -14.469938 -30.515909 -13.246002 -20.386164 -22.337336 14.285447 -10.250830 23.927450 -24.084562 -18.411299 18.762964 4.384375 13.407821 52.667805 20.388109 31.110027 88.326134 -29.698189 -41.820541 40.968040 4.588863 -10.826567 26.629309 5.293664 0.136654 60.437817 -2.859123 0.263376 11.667410 0.809980 3.125473 -24.057819 -2.323071 6.074553 58.312298 34.831280 -2.209074 29.327374 -15.347295 -3.368434 
16.998161 7.997272 -34.005333 89.977356 78.976761 -90.003098 10.482725 -0.881222 -0.938747 -1.213448 5.567738 -0.674441 45.908207 -0.011283 -0.004779 2.104984 -0.062521 10.897670 -55.465946 -18.620474 -14.565436 -31.002949 -13.543444 -20.260288 -22.555477 14.254062 -10.197953 23.927450 -24.084562 -18.411299 18.889364 4.138738 12.962855 52.667812 20.388109 31.110029 88.326134 -29.698189 -41.820541 40.968040 4.588863 -10.826567 26.629309 5.293664 0.136654 60.437817 -2.859123 0.263376 11.667410 0.809980 3.125473 -24.057819 -2.323071 6.074553 58.312298 34.831280 -2.209074 29.327374 -15.347295 -3.368434 
16.998161 7.997272 -34.005333 89.977356 78.976761 -90.003098 10.182627 -0.881186 -0.938664 -0.264453 5.567825 -0.674379 45.357876 -0.011306 -0.004724 2.355113 -0.062004 10.797578 -55.051605 -17.865042 -14.666254 -31.491247 -13.839811 -20.131664 -22.773563 14.222486 -10.145209 23.927450 -24.084562 -18.411299 19.013803 3.892144 12.518593 52.667805 20.388109 31.110027 88.326134 -29.698189 -41.820541 40.968040 4.588863 -10.826567 26.629309 5.293664 0.136654 60.437817 -2.859123 0.263376 11.667410 0.809980 3.125473 -24.057821 -2.323071 6.074553 58.312298 34.831280 -2.209076 29.327374 -15.347295 -3.368434 
16.998161 7.997272 -34.005333 89.977356 78.976761 -90.003098 9.882543 -0.881150 -0.938581 0.684219 5.567912 -0.674315 44.807606 -0.011328 -0.004670 2.605235 -0.061050 10.697490 -54.637711 -17.110538 -14.772331 -31.980801 -14.135065 -20.000290 -22.991579 14.190716 -10.092596 23.927450 -24.084562 -18.411299 19.136272 3.644619 12.075035 52.667805 20.388109 31.110027 88.326134 -29.698189 -41.820541 40.968040 4.588863 -10.826567 26.629309 5.293664 0.136654 60.437817 -2.859123 0.263376 11.667410 0.809980 3.125473 -24.057821 -2.323071 6.074553 58.312298 34.831280 -2.209074 29.327374 -15.347295 -3.368434 
16.998161 7.997272 -34.005333 89.977356 78.976761 -90.003098 9.582465 -0.881113 -0.938498 1.632434 5.567997 -0.674250 44.257408 -0.011349 -0.004615 2.855347 -0.059659 10.597413 -54.224152 -16.357101 -14.883617 -32.471603 -14.429170 -19.866165 -23.209526 14.158746 -10.040116 23.927450 -24.084562 -18.411299 19.256771 3.396193 11.632194 52.667805 20.388109 31.110027 88.326134 -29.698189 -41.820541 40.968040 4.588863 -10.826567 26.629309 5.293664 0.136654 60.437817 -2.859123 0.263376 11.667410 0.809980 3.125473 -24.057819 -2.323071 6.074553 58.312298 34.831280 -2.209074 29.327374 -15.347295 -3.368434 
